<?xml version="1.0" encoding="UTF-8"?>
<svg version="1.1" xmlns="http://www.w3.org/2000/svg" width="199" height="55">
<path d="M0 0 C3.15689734 1.60714774 5.19415756 2.97438234 7.375 5.75 C8.36402062 9.31047423 8.88781745 12.40984769 8 16 C6.34855195 18.34744486 4.56340446 20.31184715 2.53125 22.3359375 C0.77428954 23.86839105 0.77428954 23.86839105 1 26 C1.474375 26.391875 1.94875 26.78375 2.4375 27.1875 C4.87763785 30.01805991 4.93762767 32.32003242 5 36 C2.06329114 41.46835443 2.06329114 41.46835443 -1 43 C-7.99869622 43.68839635 -7.99869622 43.68839635 -12 40.9375 C-14.54356454 37.20163958 -14.77894903 35.44000949 -14 31 C-12.52624829 28.68265249 -10.93673016 26.98514841 -9 25 C-9.5775 24.773125 -10.155 24.54625 -10.75 24.3125 C-14.30969463 22.23601146 -16.35943814 19.53734846 -17.9375 15.75 C-18.03533836 11.44511224 -16.94956796 7.82772316 -15 4 C-10.54713989 -0.34683963 -5.96558045 -1.06718792 0 0 Z M-11 4 C-13.31500706 7.24100988 -13.61099664 10.10489642 -13 14 C-10.34740757 18.12529797 -7.50226013 21.00334551 -3 23 C1.87263336 18.44772845 1.87263336 18.44772845 3.3125 12.1875 C3.26093093 9.03605692 2.96519409 7.93708162 1.375 5.0625 C-2.50579605 1.69233501 -6.72723274 0.79542456 -11 4 Z M-7 28 C-9.3256104 30.92854642 -10.03457486 32.41222746 -9.8125 36.1875 C-9.21417687 39.10787469 -9.21417687 39.10787469 -7 41 C-4.54258463 41.50014953 -4.54258463 41.50014953 -2 41 C0.09764165 39.48105194 0.09764165 39.48105194 1 37 C0.35278317 33.47626395 -0.37445847 31.58644519 -3 29.125 C-4.90807602 27.83657959 -4.90807602 27.83657959 -7 28 Z " fill="#000000" transform="translate(64,2)"/>
<path d="M0 0 C-0.89968652 6.55485893 -0.89968652 6.55485893 -1.5 9.21875 C-2.1631226 12.90736948 -2.35871384 16.5741932 -2.5625 20.3125 C-2.60568359 21.05306641 -2.64886719 21.79363281 -2.69335938 22.55664062 C-2.79870432 24.37091464 -2.89978316 26.1854355 -3 28 C-1.68 28 -0.36 28 1 28 C1 28.66 1 29.32 1 30 C0.01 30.33 -0.98 30.66 -2 31 C-2.33 35.62 -2.66 40.24 -3 45 C-3.66 44.67 -4.32 44.34 -5 44 C-6.26761762 39.70418473 -7 36.49055702 -7 32 C-7.73605469 32.09539063 -8.47210938 32.19078125 -9.23046875 32.2890625 C-10.20628906 32.39992187 -11.18210938 32.51078125 -12.1875 32.625 C-13.15042969 32.74101563 -14.11335937 32.85703125 -15.10546875 32.9765625 C-18.24075323 33.00194942 -20.19486535 32.34359283 -23 31 C-23 29.68 -23 28.36 -23 27 C-22.37351563 26.39929688 -21.74703125 25.79859375 -21.1015625 25.1796875 C-18.33134151 22.30648432 -18.07066391 20.02239419 -17.375 16.125 C-16.54257256 11.59071877 -15.55439952 7.34434739 -14 3 C-12.68 3 -11.36 3 -10 3 C-9.32320207 11.96757253 -12.25521244 19.4545642 -17 27 C-14.03 27.33 -11.06 27.66 -8 28 C-8.02320313 26.78183594 -8.04640625 25.56367188 -8.0703125 24.30859375 C-8.0890835 22.68490201 -8.10728227 21.06120358 -8.125 19.4375 C-8.14175781 18.63763672 -8.15851563 17.83777344 -8.17578125 17.01367188 C-8.21719996 11.93987987 -7.76061893 7.77706395 -6 3 C-2.90322581 -0 -2.90322581 -0 0 0 Z " fill="#000000" transform="translate(155,2)"/>
<path d="M0 0 C3.6578218 2.03993908 5.66946174 3.50419262 8 7 C10.00809524 16.70579368 7.6943785 23.52312415 2.53515625 31.8359375 C1.15343758 33.78370377 -0.25175069 35.38221705 -2 37 C-1.28972656 37.26554687 -0.57945313 37.53109375 0.15234375 37.8046875 C1.53099609 38.33449219 1.53099609 38.33449219 2.9375 38.875 C4.31228516 39.39707031 4.31228516 39.39707031 5.71484375 39.9296875 C8 41 8 41 9 43 C2.07 43 -4.86 43 -12 43 C-12.33 41.68 -12.66 40.36 -13 39 C-12.41992188 38.731875 -11.83984375 38.46375 -11.2421875 38.1875 C-4.365356 34.73773634 0.51622171 30.45133487 3 23 C3.53642018 17.00653604 3.46993814 12.1406491 0 7 C-2.837578 4.64985842 -2.837578 4.64985842 -6.125 5.3125 C-8.88086422 5.70644321 -8.88086422 5.70644321 -10 7 C-10.41302262 11.64650451 -9.76673742 13.39121206 -7 17 C-7.3125 19.25 -7.3125 19.25 -8 21 C-10.375 20.8125 -10.375 20.8125 -13 20 C-14.86367498 17.48809024 -15.05320905 15.67108561 -14.80859375 12.5859375 C-14.15217436 8.57645689 -13.53656715 5.70965333 -11.0625 2.4375 C-7.43536961 -0.09049997 -4.32401113 -0.42392266 0 0 Z " fill="#000000" transform="translate(88,2)"/>
<path d="M0 0 C3.6578218 2.03993908 5.66946174 3.50419262 8 7 C10.00809524 16.70579368 7.6943785 23.52312415 2.53515625 31.8359375 C1.15343758 33.78370377 -0.25175069 35.38221705 -2 37 C-1.28972656 37.26554687 -0.57945313 37.53109375 0.15234375 37.8046875 C1.53099609 38.33449219 1.53099609 38.33449219 2.9375 38.875 C4.31228516 39.39707031 4.31228516 39.39707031 5.71484375 39.9296875 C8 41 8 41 9 43 C2.07 43 -4.86 43 -12 43 C-12.33 41.68 -12.66 40.36 -13 39 C-12.41992188 38.731875 -11.83984375 38.46375 -11.2421875 38.1875 C-4.365356 34.73773634 0.51622171 30.45133487 3 23 C3.53642018 17.00653604 3.46993814 12.1406491 0 7 C-2.837578 4.64985842 -2.837578 4.64985842 -6.125 5.3125 C-8.88086422 5.70644321 -8.88086422 5.70644321 -10 7 C-10.41302262 11.64650451 -9.76673742 13.39121206 -7 17 C-7.3125 19.25 -7.3125 19.25 -8 21 C-10.375 20.8125 -10.375 20.8125 -13 20 C-14.86367498 17.48809024 -15.05320905 15.67108561 -14.80859375 12.5859375 C-14.15217436 8.57645689 -13.53656715 5.70965333 -11.0625 2.4375 C-7.43536961 -0.09049997 -4.32401113 -0.42392266 0 0 Z " fill="#000000" transform="translate(36,2)"/>
<path d="M0 0 C-0.33 3.3 -0.66 6.6 -1 10 C-0.01 10 0.98 10 2 10 C1.67 9.34 1.34 8.68 1 8 C0.95977609 5.6670134 0.95679753 3.33293334 1 1 C2.98 0.67 4.96 0.34 7 0 C6.67 3.3 6.34 6.6 6 10 C7.32 10 8.64 10 10 10 C10 10.99 10 11.98 10 13 C8.68 13 7.36 13 6 13 C5.67 14.98 5.34 16.96 5 19 C6.65 19 8.3 19 10 19 C10 19.99 10 20.98 10 22 C8.35 22 6.7 22 5 22 C5.020625 23.27875 5.04125 24.5575 5.0625 25.875 C5.125 29.75 5.125 29.75 4 32 C3.34 32 2.68 32 2 32 C2 28.7 2 25.4 2 22 C0.68 22 -0.64 22 -2 22 C-2.33 25.3 -2.66 28.6 -3 32 C-3.66 32 -4.32 32 -5 32 C-5 28.7 -5 25.4 -5 22 C-6.65 22 -8.3 22 -10 22 C-10 21.01 -10 20.02 -10 19 C-8.35 19 -6.7 19 -5 19 C-5.33 17.35 -5.66 15.7 -6 14 C-7.32 13.67 -8.64 13.34 -10 13 C-9.67 12.01 -9.34 11.02 -9 10 C-8.01 10 -7.02 10 -6 10 C-6 7.03 -6 4.06 -6 1 C-3 0 -3 0 0 0 Z M-1 13 C-2.29633621 14.06645115 -2.29633621 14.06645115 -2.0625 16.5625 C-2.041875 17.366875 -2.02125 18.17125 -2 19 C-0.68 19 0.64 19 2 19 C2 17.02 2 15.04 2 13 C1.01 13 0.02 13 -1 13 Z " fill="#000000" transform="translate(10,9)"/>
<path d="M0 0 C-0.20496094 0.9178125 -0.40992187 1.835625 -0.62109375 2.78125 C-2.02559309 9.17877808 -3.34803367 15.48033667 -4 22 C2.93 21.01 2.93 21.01 10 20 C9.67 20.99 9.34 21.98 9 23 C4.31840994 24.74412179 1.10309888 25 -4 25 C-3.67 31.6 -3.34 38.2 -3 45 C-3.66 45 -4.32 45 -5 45 C-8.44419134 32.51480638 -8.44419134 32.51480638 -8 26 C-10.31 25.67 -12.62 25.34 -15 25 C-15 23.68 -15 22.36 -15 21 C-13.02 21 -11.04 21 -9 21 C-9.04125 19.88625 -9.0825 18.7725 -9.125 17.625 C-9.11539543 12.23683583 -8.96796819 5.6645941 -5.67578125 1.20703125 C-4 0 -4 0 0 0 Z " fill="#000000" transform="translate(117,10)"/>
<path d="M0 0 C1.32 0 2.64 0 4 0 C3 7 2 14 1 21 C5.62 20.67 10.24 20.34 15 20 C15 20.66 15 21.32 15 22 C9.1563886 24.46046796 6.76144905 25 0 25 C0.66 31.6 1.32 38.2 2 45 C1.34 45 0.68 45 0 45 C-2.11293829 38.63460728 -3.46048934 32.68993219 -4 26 C-5.98 25.67 -7.96 25.34 -10 25 C-10 23.68 -10 22.36 -10 21 C-8.02 21 -6.04 21 -4 21 C-4.03480469 20.2265625 -4.06960937 19.453125 -4.10546875 18.65625 C-4.27929276 11.96816416 -3.86227076 7.06801401 -1 1 C-0.67 0.67 -0.34 0.34 0 0 Z " fill="#000000" transform="translate(172,10)"/>
<path d="M0 0 C2.28050434 0.4307954 4.54971381 0.92166728 6.8125 1.4375 C18.55514985 3.92642365 29.18971858 2.95673302 41 1 C41 1.66 41 2.32 41 3 C28.77609061 8.95301498 16.19416697 11.41888899 2.9375 7 C1 6 1 6 -0.625 3.3125 C-0.74875 2.549375 -0.8725 1.78625 -1 1 C-0.67 0.67 -0.34 0.34 0 0 Z " fill="#000000" transform="translate(158,0)"/>
<path d="M0 0 C0.93199219 0.2165625 1.86398438 0.433125 2.82421875 0.65625 C16.007447 3.53549904 27.66599261 3.4442043 41 1 C41 1.66 41 2.32 41 3 C29.90073224 8.40531716 18.0579697 11.4835933 5.875 7.625 C3.19922567 6.65466425 2.05207893 6.05207893 0 4 C0 2.68 0 1.36 0 0 Z " fill="#000000" transform="translate(98,0)"/>
</svg>
